<svg width="98" height="65" viewBox="0 0 98 65" fill="none" xmlns="http://www.w3.org/2000/svg">
<g clip-path="url(#clip0_2_483)">
<path d="M51.4736 40.7966C51.8135 39.4358 52.8094 38.7834 54.2172 38.7834C55.5293 38.7834 56.5971 39.3817 56.9618 40.7966L59.8036 52.2018C59.8519 52.3648 59.9973 52.6649 60.1188 52.6649C60.2643 52.6649 60.3857 52.4467 60.4828 52.0932L63.5675 39.0005H67.9872L63.8593 54.9778C63.2523 57.3735 62.4749 58.271 60.4107 58.271C58.1514 58.271 57.4958 57.1007 57.0834 55.413L54.5089 45.0975C54.4358 44.8526 54.3634 44.6077 54.2172 44.6077C54.0718 44.6077 53.9987 44.8526 53.9264 45.0975L51.3518 55.413C50.9386 57.1007 50.2831 58.271 48.0248 58.271C45.9852 58.271 45.1595 57.3459 44.5515 54.9778L40.4473 39.0005H44.8679L47.9517 52.0932C48.0248 52.4467 48.1217 52.6649 48.2917 52.6649C48.4369 52.6649 48.5587 52.3648 48.6072 52.2018L51.4736 40.7966Z" fill="white" stroke="white" stroke-width="0.0169889" stroke-miterlimit="2" stroke-linejoin="round"/>
<path d="M73.3938 51.9845C72.6659 51.9845 72.2525 52.5551 72.2525 53.5627C72.2525 54.488 72.5928 55.1138 73.3699 55.1138H76.6001C77.2071 55.1138 77.4495 54.8424 77.4495 54.162V51.9845H73.3938ZM77.2556 43.628C79.8055 43.628 81.238 45.4787 81.238 48.2001V55.3322C81.238 57.1007 80.388 58.0537 78.8099 58.0537H71.5971C69.2893 58.0537 68.4153 56.5289 68.4153 53.5359C68.4153 50.8131 69.2893 49.0446 71.5971 49.0446H77.4495V48.4185C77.4495 47.2748 76.867 46.6766 75.8229 46.6766H69.3142V43.628H77.2556Z" fill="white" stroke="white" stroke-width="0.0169889" stroke-miterlimit="2" stroke-linejoin="round"/>
<path d="M89.454 62.708H85.6168L87.6081 58.0259L81.6829 43.6279H85.5686L89.3809 53.7529L93.2913 43.6279H97.1285L89.454 62.708Z" fill="white" stroke="white" stroke-width="0.0169889" stroke-miterlimit="2" stroke-linejoin="round"/>
<path d="M5.20352 52.9907C5.20352 54.0801 5.44667 54.3526 6.41748 54.3526H10.4734C11.7856 54.3526 12.3442 53.7808 12.3442 52.2838C12.3442 50.7867 11.7856 50.2149 10.5711 50.2149H5.20352V52.9907ZM5.20352 46.6765H10.4496C11.6391 46.6765 12.1256 46.1591 12.1256 44.6618C12.1256 43.3012 11.6391 42.7027 10.425 42.7027H6.29607C5.44667 42.7027 5.20352 42.9741 5.20352 43.9273V46.6765ZM16.8123 52.7736C16.8123 56.0126 15.9867 58.0537 12.5381 58.0537H3.40687C1.82797 58.0537 0.832275 57.1829 0.832275 55.1417V41.9403C0.832275 39.8991 1.82797 39.0005 3.40687 39.0005H12.2947C15.2342 39.0005 16.4966 40.6617 16.4966 44.2808C16.4966 46.2675 15.8896 47.9287 14.019 48.2823V48.3909C16.205 48.7454 16.8123 50.3235 16.8123 52.7736Z" fill="white" stroke="white" stroke-width="0.0169889" stroke-miterlimit="2" stroke-linejoin="round"/>
<path d="M23.427 51.9845C22.6991 51.9845 22.2857 52.5551 22.2857 53.5627C22.2857 54.488 22.626 55.1138 23.403 55.1138H26.6333C27.2402 55.1138 27.4828 54.8424 27.4828 54.162V51.9845H23.427ZM27.2889 43.628C29.8388 43.628 31.2713 45.4787 31.2713 48.2001V55.3322C31.2713 57.1007 30.421 58.0537 28.8432 58.0537H21.6304C19.3226 58.0537 18.4485 56.5289 18.4485 53.5359C18.4485 50.8131 19.3226 49.0446 21.6304 49.0446H27.4828V48.4185C27.4828 47.2748 26.9003 46.6766 25.8562 46.6766H19.3472V43.628H27.2889Z" fill="white" stroke="white" stroke-width="0.0169889" stroke-miterlimit="2" stroke-linejoin="round"/>
<path d="M42.8251 48.119C42.8251 47.2494 42.564 46.9605 41.7785 46.9605H39.8674C37.4063 46.9605 37.1442 48.9306 37.1442 51.3065C37.1442 53.5089 37.432 55.6522 39.8151 55.6522H42.8251V48.119ZM44.2918 43.628C45.9928 43.628 46.9096 44.6424 46.9096 46.5251V57.6813C46.9096 62.143 45.0773 64.1143 40.8885 64.1143H33.9242V60.9266H40.1809C41.5164 60.9266 42.564 60.4912 42.8251 58.9847H38.663C34.212 58.9847 32.9551 55.9423 32.9551 51.3065C32.9551 46.6704 34.212 43.628 38.663 43.628H44.2918Z" fill="white" stroke="white" stroke-width="0.0169889" stroke-miterlimit="2" stroke-linejoin="round"/>
<path d="M74.8789 0.409121L68.9389 22.5791C68.7525 23.1776 68.5182 23.5473 68.2384 23.5473C68.0043 23.5473 67.7244 23.0388 67.631 22.7629L62.1596 3.45074C61.4571 1.05458 59.4009 0.0412175 56.8744 0.0412175C54.1635 0.0412175 52.2463 1.14639 51.5913 3.45074L46.072 22.7629C45.9786 23.0388 45.7445 23.5473 45.4647 23.5473C45.1373 23.5473 44.9506 23.1776 44.8098 22.5791L38.8717 0.409121H27.5974C33.2575 0.409121 35.6888 3.22178 35.6888 9.35031C35.6888 12.7147 34.5198 15.5273 30.9176 16.126V16.3099C35.1272 16.9103 36.296 19.5823 36.296 23.7313C36.296 29.216 34.1611 32.8883 27.5206 32.8883H27.5151L44.9506 33.0402C49.299 33.0402 50.5613 31.0586 51.357 28.2008L56.3149 10.7333C56.4538 10.3186 56.5947 9.90385 56.8744 9.90385C57.1562 9.90385 57.2951 10.3186 57.4362 10.7333L62.3936 28.2008C63.1876 31.0586 64.45 33.0402 68.8 33.0402C72.7753 33.0402 74.2718 31.5202 75.4407 27.4633L83.3892 0.409121H74.8789Z" fill="#F89840"/>
<path d="M13.9431 19.3985V24.099C13.9431 25.9434 14.4116 26.4052 16.2811 26.4052H24.0907C26.6171 26.4052 27.6929 25.4369 27.6929 22.9019C27.6929 20.3668 26.6171 19.3985 24.2792 19.3985H13.9431Z" fill="#F89840"/>
<path d="M23.9973 6.67828H16.0468C14.4116 6.67828 13.9431 7.13799 13.9431 8.75165V13.4071H24.045C26.3354 13.4071 27.2721 12.5309 27.2721 9.99583C27.2721 7.69148 26.3354 6.67828 23.9973 6.67828Z" fill="#F89840"/>
<path d="M39.6333 42.5285L44.9919 42.6028C46.6929 42.6028 47.4176 44.0725 47.4176 45.9551L47.3387 63.0259" stroke="white" stroke-width="0.0121316" stroke-miterlimit="2" stroke-linejoin="round"/>
</g>
<defs>
<clipPath id="clip0_2_483">
<rect width="98" height="65" fill="white"/>
</clipPath>
</defs>
</svg>
